<?xml version="1.0" encoding="UTF-8"?>
<svg id="Layer_1" xmlns="http://www.w3.org/2000/svg" width="1024" height="1024" version="1.1" viewBox="0 0 1024 1024">
  <!-- Generator: Adobe Illustrator 29.5.1, SVG Export Plug-In . SVG Version: 2.1.0 Build 141)  -->
  <path d="M820,666h-56.5l-1.3-1.5c0-.4.8-.8.8-1v-38.5c-2.4-.6-1.7.6-2.3,1.3-65.5,74-177.9,56.1-229.7-23.8-8.3-12.8-12.3-25-18.9-38.1s-.6-2.4-2-2.5c-19.1,45.2-52.8,84.4-99.5,102-85.6,32.4-175.7-20.2-201-105-34.3-114.6,48-233.1,171.9-217.9,60.6,7.5,107.9,50.4,128.1,106.9,12.9-24.3,27.9-47.9,48.5-66.5,99.2-89.5,251.7-27,262,104v180.5ZM457,477c-8-33-30-62.4-62.8-73.7-21.1-7.3-46-6.7-67,.5-32.6,11.1-56.7,40-64.2,73.3h194ZM657.8,398.3c-60.7,3.4-88,60.2-114.4,106.2,9.5,25.2,18.9,51.3,36.7,72,73.3,85.4,194.8,20.2,181.8-86.8-6.5-53.5-48.7-94.4-104.1-91.3ZM468,525h-207c3.5,43.8,44.6,86,88.6,89.9,51.5,4.6,86.2-29.8,109.5-71.2,1.3-2.4,9.9-17.6,8.8-18.7Z"/>
</svg>
